<svg width="577" height="136" viewBox="0 0 577 136" fill="none" xmlns="http://www.w3.org/2000/svg">
<path d="M224.762 82.9008C231.751 82.9008 237.922 87.4344 237.922 98.5166V116.147H227.973V98.8315C227.973 94.6756 226.21 91.5273 221.614 91.5273C217.773 91.5273 215.191 94.9275 214.436 97.9499V116.147H204.487V98.8315C204.487 94.6756 201.905 91.5273 198.127 91.5273C194.034 91.5273 191.578 94.2978 190.949 97.9499V116.147H181V83.4045H190.949V89.3864C191.075 87.8752 194.286 82.9008 200.709 82.9008C205.431 82.9008 209.965 85.4195 212.672 90.0161C213.428 88.253 217.206 82.9008 224.762 82.9008ZM260.213 82.8378C267.643 82.8378 277.466 88.4419 277.466 99.9019C277.466 111.425 267.643 116.777 260.213 116.777C252.782 116.777 242.96 111.425 242.96 99.9019C242.96 88.4419 252.782 82.8378 260.213 82.8378ZM260.213 91.5902C256.435 91.5902 252.594 94.4867 252.594 99.9019C252.594 105.128 256.435 108.025 260.213 108.025C263.991 108.025 267.895 105.128 267.895 99.9019C267.895 94.4867 263.991 91.5902 260.213 91.5902ZM319.339 83.2786L304.667 116.147H295.915L281.244 83.2786H291.129L300.323 104.31L309.453 83.2786H319.339ZM334.073 71.6297V80.0043H324.124V71.6297H334.073ZM334.073 83.4045V116.147H324.124V83.4045H334.073ZM356.741 82.8378C364.171 82.8378 374.561 88.4419 372.483 103.239H349.626C350.759 106.639 353.719 108.402 357.686 108.402C361.716 108.402 362.975 107.521 365.242 106.576L370.72 111.866C367.823 114.699 363.919 116.777 357.308 116.777C349.185 116.777 339.488 111.173 339.488 99.9019C339.488 88.4419 349.311 82.8378 356.741 82.8378ZM356.741 91.3384C353.908 91.3384 351.011 92.9755 349.752 96.2498H363.668C362.66 92.9755 359.575 91.3384 356.741 91.3384ZM399.559 82.397C399.559 72.2593 407.178 71 411.145 71C414.293 71 417.378 71.6926 419.708 73.2038L416.371 80.0673C414.545 79.3746 413.852 79.1857 412.341 79.1857C409.508 79.1857 409.571 81.7674 409.571 82.397V83.4045H416.371V91.5902H409.571V116.147H399.559V91.5902H395.088V83.4045H399.559V82.397ZM420.968 83.4045H430.916V116.147H420.968V83.4045ZM457.426 82.9008C463.533 82.9008 469.767 86.9936 469.767 97.3832V116.147H459.818V98.0759C459.818 93.1015 458.118 91.5273 454.97 91.5273C450.499 91.5273 447.917 95.872 447.288 97.761V116.147H437.339V83.4045H447.288V89.0716C447.917 87.4974 451.255 82.9008 457.426 82.9008ZM499.362 71.6297H509.31V116.147H499.362V112.873C498.921 114.007 495.961 116.777 490.924 116.777C483.431 116.777 474.804 111.425 474.804 99.713C474.804 88.4419 483.431 82.8378 490.924 82.8378C495.961 82.8378 498.921 85.7343 499.362 86.4269V71.6297ZM492.372 108.025C496.465 108.025 499.802 105.191 499.802 99.713C499.802 94.4238 496.465 91.5902 492.372 91.5902C488.09 91.5902 484.438 94.4867 484.438 99.713C484.438 105.128 488.09 108.025 492.372 108.025ZM531.979 82.8378C539.409 82.8378 549.798 88.4419 547.72 103.239H524.863C525.997 106.639 528.956 108.402 532.923 108.402C536.953 108.402 538.212 107.521 540.479 106.576L545.957 111.866C543.061 114.699 539.157 116.777 532.545 116.777C524.422 116.777 514.726 111.173 514.726 99.9019C514.726 88.4419 524.548 82.8378 531.979 82.8378ZM531.979 91.3384C529.145 91.3384 526.248 92.9755 524.989 96.2498H538.905C537.897 92.9755 534.812 91.3384 531.979 91.3384ZM574.418 82.9008C575.3 82.9008 576.181 82.9008 577 83.0897V92.5977C576.244 92.4088 575.363 92.4088 574.733 92.4088C568.688 92.4088 563.84 96.7535 563.336 102.798V116.147H553.387V83.4045H563.336V91.4013C564.847 86.4899 568.625 82.9008 574.418 82.9008Z" fill="url(#paint0_linear_1357_21)"/>
<path d="M37.95 59.4C41.5397 59.4 45.0488 58.3355 48.0336 56.3412C51.0184 54.3468 53.3447 51.5122 54.7184 48.1957C56.0921 44.8792 56.4516 41.2299 55.7513 37.7091C55.0509 34.1884 53.3223 30.9543 50.784 28.416C48.2457 25.8777 45.0116 24.1491 41.4909 23.4488C37.9701 22.7484 34.3208 23.1079 31.0043 24.4816C27.6878 25.8553 24.8532 28.1817 22.8588 31.1664C20.8645 34.1512 19.8 37.6603 19.8 41.25C19.7986 43.6339 20.2672 45.9947 21.1788 48.1973C22.0905 50.4 23.4273 52.4014 25.113 54.087C26.7986 55.7727 28.8 57.1096 31.0027 58.0212C33.2054 58.9328 35.5661 59.4014 37.95 59.4ZM37.95 36.3C38.929 36.3 39.886 36.5903 40.7001 37.1342C41.5141 37.6781 42.1486 38.4512 42.5232 39.3557C42.8979 40.2602 42.9959 41.2555 42.8049 42.2157C42.6139 43.1759 42.1424 44.0579 41.4502 44.7502C40.7579 45.4425 39.8759 45.9139 38.9157 46.1049C37.9555 46.2959 36.9602 46.1979 36.0557 45.8232C35.1512 45.4486 34.3781 44.8141 33.8342 44.0001C33.2903 43.1861 33 42.229 33 41.25C32.9991 40.5997 33.1266 39.9557 33.375 39.3547C33.6235 38.7537 33.9881 38.2077 34.4479 37.7479C34.9077 37.2881 35.4537 36.9235 36.0547 36.675C36.6556 36.4266 37.2997 36.2991 37.95 36.3Z" fill="url(#paint1_linear_1357_21)"/>
<path d="M94.05 56.1C99.5978 56.1 105.021 54.4549 109.634 51.3727C114.247 48.2906 117.842 43.9097 119.965 38.7843C122.088 33.6588 122.643 28.0189 121.561 22.5777C120.479 17.1366 117.807 12.1385 113.884 8.21567C109.961 4.2928 104.963 1.6213 99.5223 0.538985C94.0811 -0.54333 88.4412 0.0121536 83.3157 2.13519C78.1903 4.25823 73.8094 7.85347 70.7273 12.4663C67.6451 17.0791 66 22.5022 66 28.05C66.005 35.4878 68.9618 42.6195 74.2212 47.8789C79.4805 53.1382 86.6122 56.095 94.05 56.1ZM94.05 19.8C95.6817 19.8 97.2767 20.2839 98.6335 21.1904C99.9902 22.0969 101.048 23.3854 101.672 24.8929C102.296 26.4004 102.46 28.0592 102.141 29.6595C101.823 31.2599 101.037 32.7299 99.8836 33.8836C98.7298 35.0374 97.2598 35.8232 95.6595 36.1415C94.0591 36.4598 92.4004 36.2964 90.8929 35.672C89.3854 35.0476 88.0969 33.9902 87.1904 32.6335C86.2838 31.2768 85.8 29.6817 85.8 28.05C85.8008 25.8622 86.6702 23.7643 88.2172 22.2173C89.7642 20.6703 91.8622 19.8008 94.05 19.8Z" fill="url(#paint2_linear_1357_21)"/>
<path d="M154.453 79.2641L125.4 85.8V75.9C125.395 74.1511 124.698 72.4754 123.461 71.2387C122.225 70.0021 120.549 69.3051 118.8 69.3H19.8C18.0511 69.3051 16.3753 70.0021 15.1387 71.2387C13.9021 72.4754 13.2051 74.1511 13.2 75.9V79.2H6.6C4.84957 79.2 3.17084 79.8954 1.9331 81.1331C0.695355 82.3709 0 84.0496 0 85.8V87.78C0 89.5304 0.695355 91.2092 1.9331 92.4469C3.17084 93.6847 4.84957 94.38 6.6 94.38H13.2V128.7C13.2051 130.449 13.9022 132.125 15.1388 133.361C16.3754 134.598 18.0512 135.295 19.8 135.3H118.8C120.549 135.295 122.225 134.598 123.461 133.361C124.698 132.125 125.395 130.449 125.4 128.7V115.5L154.453 122.036C154.932 122.132 155.426 122.12 155.899 122.002C156.373 121.883 156.815 121.662 157.192 121.352C157.57 121.043 157.874 120.653 158.083 120.212C158.292 119.77 158.4 119.288 158.4 118.8V82.5C158.4 82.0118 158.292 81.5296 158.083 81.0883C157.874 80.647 157.57 80.2575 157.192 79.948C156.815 79.6384 156.373 79.4165 155.899 79.2983C155.426 79.18 154.932 79.1683 154.453 79.2641ZM59.4 112.2C59.3949 113.949 58.6979 115.625 57.4612 116.861C56.2246 118.098 54.5488 118.795 52.8 118.8H33C31.2512 118.795 29.5754 118.098 28.3388 116.861C27.1022 115.625 26.4051 113.949 26.4 112.2V105.6C26.4051 103.851 27.1021 102.175 28.3387 100.939C29.5753 99.7021 31.2511 99.0051 33 99H52.8C54.5489 99.0051 56.2247 99.7021 57.4613 100.939C58.6979 102.175 59.3949 103.851 59.4 105.6V112.2Z" fill="url(#paint3_linear_1357_21)"/>
<defs>
<linearGradient id="paint0_linear_1357_21" x1="382.5" y1="80.5" x2="-32.5" y2="80.5" gradientUnits="userSpaceOnUse">
<stop stop-color="#F42B03"/>
<stop offset="1" stop-color="#737373"/>
</linearGradient>
<linearGradient id="paint1_linear_1357_21" x1="382.5" y1="80.5" x2="-32.5" y2="80.5" gradientUnits="userSpaceOnUse">
<stop stop-color="#F42B03"/>
<stop offset="1" stop-color="#737373"/>
</linearGradient>
<linearGradient id="paint2_linear_1357_21" x1="382.5" y1="80.5" x2="-32.5" y2="80.5" gradientUnits="userSpaceOnUse">
<stop stop-color="#F42B03"/>
<stop offset="1" stop-color="#737373"/>
</linearGradient>
<linearGradient id="paint3_linear_1357_21" x1="382.5" y1="80.5" x2="-32.5" y2="80.5" gradientUnits="userSpaceOnUse">
<stop stop-color="#F42B03"/>
<stop offset="1" stop-color="#737373"/>
</linearGradient>
</defs>
</svg>
